<?xml version="1.0" encoding="utf-8"?>
<!-- Generator: Adobe Illustrator 13.0.0, SVG Export Plug-In . SVG Version: 6.00 Build 14948)  -->
<!DOCTYPE svg PUBLIC "-//W3C//DTD SVG 1.1//EN" "http://www.w3.org/Graphics/SVG/1.1/DTD/svg11.dtd">
<svg version="1.1" id="Calque_1" xmlns="http://www.w3.org/2000/svg" xmlns:xlink="http://www.w3.org/1999/xlink" x="0px" y="0px"
	 width="80px" height="80px" viewBox="0 0 80 80" enable-background="new 0 0 80 80" xml:space="preserve">
<g>
	<rect x="1.027" y="39.125" fill-rule="evenodd" clip-rule="evenodd" fill="#FFFFFF" width="9.827" height="1.885"/>
	<rect x="69.28" y="39.125" fill-rule="evenodd" clip-rule="evenodd" fill="#FFFFFF" width="9.827" height="1.885"/>
	<path fill="#FFFFFF" d="M42.467,52.969c-0.03,0.031-0.068,0.047-0.113,0.047c-0.044,0-0.081-0.016-0.111-0.047
		c-0.031-0.03-0.046-0.067-0.046-0.111c0-0.045,0.015-0.083,0.046-0.113c0.03-0.031,0.067-0.046,0.111-0.046
		c0.045,0,0.083,0.015,0.113,0.046c0.031,0.03,0.047,0.068,0.047,0.113C42.514,52.901,42.498,52.938,42.467,52.969z M42.031,51.588
		c-0.005-0.069-0.017-0.127-0.034-0.174s-0.043-0.084-0.076-0.11c-0.033-0.027-0.075-0.046-0.125-0.058
		c-0.05-0.011-0.109-0.017-0.18-0.017c-0.06,0-0.107,0.001-0.144,0.003c-0.037,0.003-0.064,0.008-0.084,0.014
		c-0.02,0.007-0.032,0.015-0.037,0.023c-0.006,0.009-0.009,0.021-0.009,0.035v1.296c0,0.052,0.004,0.097,0.011,0.134
		c0.008,0.037,0.022,0.067,0.044,0.091s0.054,0.041,0.095,0.053c0.041,0.013,0.096,0.02,0.163,0.021v0.093h-0.916v-0.093
		c0.068-0.001,0.123-0.008,0.165-0.021c0.042-0.012,0.074-0.029,0.096-0.053s0.036-0.054,0.043-0.091
		c0.008-0.037,0.012-0.082,0.012-0.134v-1.296c0-0.015-0.003-0.026-0.009-0.035s-0.018-0.017-0.034-0.023
		c-0.017-0.006-0.041-0.011-0.071-0.014c-0.03-0.002-0.071-0.003-0.123-0.003c-0.063,0-0.122,0.002-0.176,0.007
		c-0.055,0.005-0.102,0.02-0.141,0.043c-0.04,0.023-0.072,0.06-0.096,0.107c-0.025,0.049-0.038,0.115-0.039,0.201h-0.089v-0.463
		h1.83l0.024,0.463H42.031z M40.063,52.688c-0.032,0.068-0.077,0.127-0.135,0.175c-0.058,0.049-0.128,0.087-0.208,0.113
		s-0.169,0.04-0.267,0.04c-0.092,0-0.175-0.014-0.249-0.039c-0.073-0.025-0.148-0.069-0.224-0.131l-0.068,0.118h-0.056l-0.036-0.542
		h0.09c0.011,0.072,0.033,0.138,0.064,0.196c0.032,0.058,0.071,0.107,0.119,0.147c0.047,0.041,0.103,0.071,0.165,0.094
		c0.062,0.021,0.129,0.032,0.202,0.032c0.12,0,0.214-0.028,0.284-0.085c0.069-0.057,0.104-0.133,0.104-0.23
		c0-0.04-0.007-0.077-0.021-0.111c-0.014-0.033-0.037-0.066-0.069-0.098c-0.032-0.031-0.076-0.063-0.13-0.094
		c-0.054-0.03-0.123-0.063-0.205-0.099c-0.101-0.044-0.184-0.086-0.252-0.126c-0.068-0.041-0.122-0.083-0.162-0.127
		c-0.041-0.043-0.069-0.09-0.086-0.139c-0.017-0.05-0.025-0.105-0.025-0.168c0-0.075,0.013-0.144,0.04-0.206
		c0.026-0.063,0.064-0.118,0.112-0.164c0.049-0.046,0.106-0.082,0.172-0.106c0.066-0.025,0.139-0.038,0.219-0.038
		c0.071,0,0.137,0.012,0.198,0.034s0.124,0.059,0.187,0.109l0.063-0.109h0.056l0.026,0.482h-0.09
		c-0.039-0.133-0.095-0.231-0.168-0.296c-0.074-0.064-0.162-0.097-0.266-0.097c-0.099,0-0.177,0.024-0.235,0.072
		c-0.058,0.049-0.087,0.114-0.087,0.197c0,0.038,0.006,0.073,0.02,0.104c0.013,0.032,0.034,0.062,0.063,0.09
		c0.029,0.028,0.067,0.057,0.114,0.085s0.105,0.058,0.174,0.089c0.12,0.053,0.219,0.103,0.298,0.148s0.142,0.092,0.189,0.138
		s0.08,0.095,0.1,0.146c0.019,0.05,0.029,0.107,0.029,0.17C40.112,52.546,40.096,52.62,40.063,52.688z M37.57,52.742
		c0.013,0.035,0.035,0.063,0.067,0.085c0.031,0.022,0.073,0.037,0.125,0.047c0.052,0.008,0.116,0.013,0.192,0.013
		c0.085,0,0.158-0.006,0.218-0.018c0.06-0.013,0.11-0.033,0.15-0.063c0.04-0.029,0.072-0.067,0.097-0.115
		c0.024-0.047,0.044-0.106,0.061-0.178h0.092l-0.037,0.478h-1.505v-0.093c0.057-0.001,0.103-0.006,0.137-0.014
		s0.062-0.022,0.081-0.042c0.02-0.019,0.032-0.046,0.039-0.082c0.007-0.035,0.01-0.082,0.01-0.138v-1.129
		c0-0.058-0.002-0.103-0.008-0.138s-0.017-0.062-0.034-0.082c-0.017-0.021-0.042-0.034-0.074-0.042
		c-0.032-0.007-0.074-0.012-0.126-0.015v-0.093h1.4l0.022,0.427h-0.085c-0.01-0.064-0.025-0.117-0.047-0.159
		c-0.022-0.041-0.052-0.073-0.09-0.098s-0.086-0.041-0.144-0.051s-0.128-0.015-0.211-0.015h-0.308c-0.028,0-0.042,0.014-0.042,0.041
		v0.695c0.087,0,0.161-0.005,0.219-0.016c0.059-0.011,0.106-0.027,0.141-0.05c0.035-0.022,0.06-0.051,0.075-0.087
		s0.023-0.078,0.023-0.126h0.085v0.661h-0.085c0-0.048-0.007-0.09-0.021-0.126c-0.014-0.035-0.038-0.064-0.073-0.088
		s-0.082-0.041-0.141-0.054c-0.059-0.012-0.133-0.018-0.224-0.018v0.547C37.55,52.664,37.557,52.708,37.57,52.742z"/>
	<path fill="#FFFFFF" d="M43.644,56.416c-0.028-0.067-0.067-0.126-0.117-0.176s-0.108-0.089-0.176-0.117s-0.142-0.042-0.222-0.042
		c-0.151,0-0.271,0.043-0.362,0.129c-0.09,0.086-0.135,0.199-0.135,0.339c0,0.107,0.039,0.206,0.117,0.293
		c0.078,0.088,0.206,0.179,0.384,0.272l0.189,0.102c0.116-0.078,0.206-0.167,0.269-0.267c0.063-0.1,0.095-0.205,0.095-0.315
		C43.686,56.556,43.672,56.483,43.644,56.416z M42.677,57.892c-0.079,0.125-0.117,0.266-0.117,0.419
		c0,0.183,0.054,0.327,0.163,0.434s0.257,0.159,0.442,0.159s0.333-0.052,0.442-0.155c0.108-0.104,0.163-0.244,0.163-0.422
		c0-0.06-0.009-0.114-0.026-0.165c-0.018-0.052-0.046-0.102-0.084-0.15c-0.039-0.048-0.092-0.097-0.156-0.146
		c-0.064-0.048-0.144-0.099-0.238-0.153l-0.242-0.137C42.87,57.661,42.755,57.767,42.677,57.892z M43.492,57.3
		c0.431,0.229,0.646,0.527,0.646,0.893c0,0.127-0.025,0.245-0.075,0.354c-0.05,0.109-0.119,0.204-0.208,0.285
		s-0.193,0.145-0.315,0.189c-0.121,0.046-0.251,0.069-0.391,0.069c-0.138,0-0.266-0.02-0.385-0.059
		c-0.118-0.039-0.221-0.093-0.309-0.162c-0.087-0.068-0.156-0.149-0.206-0.244c-0.05-0.094-0.074-0.195-0.074-0.303
		c0-0.337,0.226-0.614,0.678-0.832c-0.379-0.205-0.568-0.466-0.568-0.784c0-0.11,0.021-0.215,0.066-0.314
		c0.044-0.1,0.107-0.188,0.191-0.267c0.164-0.15,0.366-0.227,0.606-0.227c0.21,0,0.398,0.057,0.565,0.17
		c0.099,0.07,0.175,0.151,0.228,0.244c0.052,0.094,0.079,0.193,0.079,0.301c0,0.138-0.042,0.264-0.126,0.38
		C43.813,57.109,43.678,57.211,43.492,57.3z M41.186,57.083c0-0.669-0.187-1.002-0.561-1.002c-0.187,0-0.324,0.072-0.414,0.216
		c-0.09,0.144-0.136,0.368-0.136,0.672c0,0.27,0.043,0.475,0.13,0.614c0.085,0.14,0.212,0.21,0.379,0.21
		c0.124,0,0.233-0.04,0.327-0.121c0.095-0.081,0.187-0.211,0.274-0.392V57.083z M41.59,57.993c-0.067,0.217-0.159,0.406-0.274,0.569
		c-0.116,0.163-0.252,0.292-0.408,0.386s-0.321,0.142-0.497,0.142c-0.097,0-0.188-0.011-0.272-0.033
		c-0.085-0.021-0.159-0.05-0.222-0.086c-0.063-0.037-0.113-0.081-0.149-0.132c-0.037-0.051-0.055-0.104-0.055-0.161
		c0-0.064,0.02-0.116,0.059-0.153c0.039-0.038,0.092-0.057,0.16-0.057c0.078,0,0.134,0.022,0.167,0.068
		c0.033,0.046,0.065,0.097,0.095,0.151s0.067,0.105,0.113,0.151c0.046,0.046,0.12,0.068,0.223,0.068
		c0.091,0,0.177-0.032,0.256-0.097s0.148-0.153,0.208-0.267c0.059-0.113,0.105-0.247,0.137-0.401
		c0.032-0.155,0.049-0.324,0.049-0.507l-0.012-0.008c-0.087,0.126-0.18,0.219-0.281,0.276c-0.101,0.058-0.22,0.087-0.356,0.087
		c-0.138,0-0.265-0.026-0.38-0.077s-0.217-0.122-0.303-0.212c-0.086-0.09-0.153-0.196-0.202-0.319
		c-0.048-0.122-0.073-0.255-0.073-0.397c0-0.151,0.028-0.292,0.083-0.424c0.055-0.133,0.131-0.247,0.228-0.346
		c0.097-0.098,0.21-0.175,0.341-0.232c0.13-0.057,0.27-0.085,0.418-0.085c0.153,0,0.295,0.035,0.425,0.104
		c0.129,0.068,0.239,0.165,0.333,0.289c0.093,0.123,0.165,0.271,0.216,0.444c0.051,0.172,0.076,0.36,0.076,0.564
		C41.69,57.546,41.657,57.776,41.59,57.993z M38.589,57.083c0-0.669-0.188-1.002-0.562-1.002c-0.186,0-0.324,0.072-0.414,0.216
		s-0.135,0.368-0.135,0.672c0,0.27,0.043,0.475,0.129,0.614s0.212,0.21,0.379,0.21c0.124,0,0.233-0.04,0.327-0.121
		s0.186-0.211,0.275-0.392V57.083z M38.993,57.993c-0.067,0.217-0.159,0.406-0.274,0.569c-0.116,0.163-0.252,0.292-0.408,0.386
		c-0.156,0.094-0.322,0.142-0.497,0.142c-0.097,0-0.188-0.011-0.272-0.033c-0.085-0.021-0.159-0.05-0.223-0.086
		c-0.063-0.037-0.113-0.081-0.149-0.132c-0.036-0.051-0.054-0.104-0.054-0.161c0-0.064,0.02-0.116,0.059-0.153
		c0.039-0.038,0.092-0.057,0.159-0.057c0.078,0,0.134,0.022,0.168,0.068c0.033,0.046,0.065,0.097,0.095,0.151
		c0.029,0.055,0.067,0.105,0.113,0.151c0.045,0.046,0.12,0.068,0.222,0.068c0.091,0,0.177-0.032,0.256-0.097
		c0.079-0.064,0.148-0.153,0.208-0.267c0.059-0.113,0.105-0.247,0.137-0.401c0.032-0.155,0.048-0.324,0.048-0.507l-0.012-0.008
		c-0.086,0.126-0.18,0.219-0.281,0.276c-0.101,0.058-0.22,0.087-0.357,0.087c-0.138,0-0.264-0.026-0.38-0.077
		s-0.217-0.122-0.303-0.212c-0.086-0.09-0.154-0.196-0.202-0.319c-0.048-0.122-0.073-0.255-0.073-0.397
		c0-0.151,0.027-0.292,0.083-0.424c0.055-0.133,0.131-0.247,0.228-0.346c0.097-0.098,0.211-0.175,0.341-0.232
		c0.13-0.057,0.27-0.085,0.418-0.085c0.153,0,0.295,0.035,0.424,0.104s0.24,0.165,0.333,0.289c0.093,0.123,0.165,0.271,0.216,0.444
		c0.051,0.172,0.077,0.36,0.077,0.564C39.094,57.546,39.061,57.776,38.993,57.993z M35.241,59.049v-0.153
		c0.089-0.002,0.161-0.012,0.216-0.026s0.098-0.039,0.129-0.072c0.031-0.034,0.051-0.081,0.061-0.142s0.014-0.138,0.014-0.232V56.94
		c0-0.156-0.001-0.285-0.002-0.387c-0.001-0.103-0.006-0.17-0.014-0.202c-0.014-0.06-0.054-0.096-0.121-0.109
		s-0.168-0.021-0.303-0.021v-0.153c0.131-0.005,0.271-0.023,0.417-0.055c0.147-0.03,0.286-0.069,0.418-0.115v2.496
		c0,0.105,0.005,0.189,0.015,0.253c0.009,0.063,0.028,0.113,0.059,0.149c0.029,0.036,0.072,0.061,0.127,0.074
		s0.128,0.022,0.22,0.024v0.153H35.241z"/>
	<path fill="#FFFFFF" d="M34.273,72.746l0.156,1.246l-1.137-0.533l-1.138,0.533l0.156-1.246l-0.859-0.917l1.233-0.237l0.607-1.1
		l0.606,1.1l1.233,0.237L34.273,72.746z M41.102,74.143l0.172,1.371l-1.25-0.587l-1.251,0.587l0.171-1.371l-0.945-1.009l1.357-0.261
		l0.667-1.21l0.667,1.21l1.356,0.261L41.102,74.143z M47.735,72.746l0.156,1.246l-1.138-0.533l-1.138,0.533l0.156-1.246
		l-0.858-0.917l1.233-0.237l0.606-1.1l0.606,1.1l1.233,0.237L47.735,72.746z"/>
	<path fill-rule="evenodd" clip-rule="evenodd" fill="#FFFFFF" d="M40,13.816c14.461,0,26.184,11.723,26.184,26.184
		S54.461,66.184,40,66.184S13.816,54.461,13.816,40S25.539,13.816,40,13.816z M40,13.546c14.61,0,26.453,11.844,26.453,26.454
		c0,14.61-11.843,26.453-26.453,26.453C25.39,66.453,13.546,54.61,13.546,40C13.546,25.39,25.39,13.546,40,13.546z"/>
	<path fill-rule="evenodd" clip-rule="evenodd" fill="#FFFFFF" d="M40,11.772c15.59,0,28.228,12.638,28.228,28.228
		S55.59,68.228,40,68.228S11.772,55.59,11.772,40S24.41,11.772,40,11.772z M40,10.652c16.208,0,29.348,13.14,29.348,29.348
		S56.208,69.348,40,69.348S10.652,56.208,10.652,40S23.792,10.652,40,10.652z"/>
	<path fill-rule="evenodd" clip-rule="evenodd" fill="#FFFFFF" d="M40,1.996c20.989,0,38.004,17.015,38.004,38.004
		c0,20.989-17.015,38.004-38.004,38.004C19.011,78.004,1.996,60.989,1.996,40C1.996,19.011,19.011,1.996,40,1.996z M40,0.488
		c21.821,0,39.512,17.69,39.512,39.512c0,21.821-17.69,39.512-39.512,39.512C18.178,79.512,0.488,61.821,0.488,40
		C0.488,18.178,18.178,0.488,40,0.488z"/>
	<path fill="#FFFFFF" d="M19.528,40.695c0.496-0.04,1.064-0.137,1.841-0.137c0.496,0,1.168,0.049,1.849,0.137
		c0.512,0.064,0.504,0.672,0.504,1.12H19C19,41.456,18.992,40.735,19.528,40.695z M20.809,35.909c0-0.256,0.185-0.552,0.552-0.552
		c0.344,0,0.56,0.192,0.56,0.512c0,0.296-0.375,1.152-0.56,1.569C21.193,37.054,20.809,36.205,20.809,35.909z M22.441,38.118
		c-0.096,0-0.16,0.096-0.176,0.168c-0.056,0.255-0.24,0.488-0.256,0.728c-0.008,0.096-0.008,0.264,0.104,0.264
		c0.12,0,0.096-0.24,0.128-0.32c0.072-0.224,0.353-0.408,0.353-0.601C22.594,38.271,22.538,38.118,22.441,38.118z M20.713,39.015
		c-0.024-0.24-0.208-0.473-0.256-0.728c-0.016-0.073-0.088-0.168-0.176-0.168c-0.096,0-0.152,0.152-0.152,0.24
		c0,0.192,0.28,0.376,0.352,0.601c0.024,0.08,0.008,0.32,0.128,0.32C20.721,39.278,20.721,39.11,20.713,39.015z M23.338,39.535
		c0,0.289,0.248,0.56-0.12,0.712c-0.68-0.088-1.353-0.135-1.849-0.135c-0.776,0-1.345,0.087-1.841,0.135
		c-0.368-0.191-0.112-0.552-0.112-0.816c0-0.472-0.888-0.536-0.888-1.497c0-0.744,0.568-1.344,1.249-1.344
		c0.632,0,0.96,0.28,1.168,0.552c0.216,0.28,0.296,0.561,0.424,0.561c0.104,0,0.16-0.28,0.36-0.561
		c0.208-0.272,0.568-0.552,1.289-0.552c0.672,0,1.185,0.512,1.185,1.344C24.202,38.742,23.338,38.982,23.338,39.535z M56.807,40.535
		c0.508-0.042,1.09-0.14,1.886-0.14c0.509,0,1.197,0.049,1.894,0.14c0.525,0.065,0.518,0.688,0.518,1.147h-4.772
		C56.331,41.313,56.322,40.575,56.807,40.535z M61.489,37.673l-0.887,2.402c-0.696-0.09-1.394-0.139-1.894-0.139
		c-0.796,0-1.378,0.099-1.886,0.139l-0.869-2.411c-0.287,0-0.542-0.271-0.542-0.582c0-0.32,0.271-0.59,0.591-0.59
		s0.582,0.271,0.582,0.59c0,0.09-0.024,0.172-0.14,0.353l0.845,0.959l0.353-1.706c-0.229-0.008-0.459-0.262-0.459-0.573
		c0-0.345,0.278-0.624,0.623-0.624c0.336,0,0.623,0.279,0.623,0.624c0,0.188-0.098,0.41-0.287,0.5l0.583,1.689h0.016l0.558-1.689
		c-0.155-0.123-0.246-0.303-0.246-0.5c0-0.345,0.279-0.624,0.623-0.624c0.337,0,0.624,0.279,0.624,0.624
		c0,0.295-0.173,0.492-0.427,0.573l0.287,1.706l0.812-0.951c-0.073-0.082-0.131-0.213-0.131-0.361c0-0.312,0.263-0.582,0.582-0.582
		s0.59,0.271,0.59,0.582C62.013,37.386,61.783,37.632,61.489,37.673z"/>
	<path fill="#FFFFFF" d="M71.723,24.572c-0.05-0.086-0.097-0.152-0.139-0.198c-0.042-0.046-0.088-0.074-0.14-0.084
		s-0.113-0.002-0.185,0.025s-0.161,0.07-0.271,0.129l-2.111,1.155l-0.26-0.475l1.377-2.792l-0.008-0.015l-1.523,0.834
		c-0.118,0.064-0.209,0.12-0.273,0.166c-0.063,0.046-0.107,0.092-0.13,0.14c-0.023,0.048-0.027,0.099-0.013,0.154
		c0.015,0.055,0.042,0.122,0.083,0.201l-0.142,0.078l-0.576-1.053l0.142-0.077c0.05,0.086,0.097,0.152,0.139,0.198
		s0.089,0.074,0.141,0.084c0.051,0.01,0.112,0.002,0.183-0.024c0.069-0.026,0.16-0.069,0.271-0.13l1.425-0.779
		c0.099-0.055,0.178-0.104,0.238-0.149c0.059-0.045,0.101-0.091,0.125-0.137c0.023-0.047,0.029-0.099,0.018-0.156
		c-0.011-0.057-0.036-0.126-0.075-0.209l0.142-0.078l0.541,0.989l-1.267,2.548l0.008,0.014l1.371-0.75
		c0.116-0.063,0.206-0.119,0.271-0.165c0.065-0.047,0.109-0.094,0.132-0.142c0.023-0.048,0.027-0.099,0.013-0.154
		c-0.015-0.055-0.042-0.122-0.082-0.201l0.142-0.077l0.575,1.052L71.723,24.572z M68.746,21.093l-0.116-0.165
		c0.176-0.19,0.274-0.392,0.295-0.606c0.021-0.213-0.04-0.42-0.182-0.621c-0.179-0.253-0.414-0.381-0.707-0.383
		c-0.294-0.002-0.615,0.12-0.965,0.367c-0.344,0.242-0.559,0.496-0.645,0.761c-0.086,0.266-0.038,0.528,0.145,0.788
		c0.133,0.187,0.283,0.299,0.452,0.336c0.17,0.037,0.339-0.004,0.509-0.124c0.102-0.071,0.156-0.15,0.167-0.236
		c0.01-0.086-0.023-0.196-0.102-0.329l0.133-0.093l0.754,1.069l-0.132,0.093c-0.077-0.107-0.152-0.166-0.229-0.174
		c-0.077-0.008-0.177,0.031-0.3,0.118l-0.439,0.309c-0.034-0.048-0.064-0.087-0.091-0.118s-0.056-0.059-0.089-0.083
		c-0.032-0.025-0.073-0.049-0.123-0.073c-0.05-0.024-0.113-0.054-0.19-0.088c-0.219-0.1-0.417-0.276-0.596-0.529
		c-0.14-0.198-0.236-0.397-0.291-0.598c-0.055-0.201-0.066-0.395-0.035-0.583c0.03-0.188,0.102-0.367,0.214-0.537
		c0.112-0.169,0.266-0.323,0.46-0.459c0.199-0.141,0.406-0.238,0.617-0.291c0.212-0.052,0.419-0.062,0.62-0.029
		c0.201,0.033,0.391,0.107,0.571,0.225c0.18,0.117,0.339,0.274,0.479,0.473c0.097,0.136,0.169,0.279,0.219,0.429
		s0.083,0.326,0.1,0.527l0.249-0.082l0.084,0.119L68.746,21.093z M67.447,17.863c-0.058-0.061-0.109-0.105-0.154-0.132
		c-0.046-0.027-0.094-0.037-0.144-0.03c-0.051,0.007-0.107,0.031-0.17,0.071c-0.063,0.041-0.138,0.097-0.225,0.169l-1.247,1.04
		c-0.097,0.081-0.171,0.149-0.222,0.204s-0.082,0.107-0.093,0.156c-0.012,0.05-0.005,0.101,0.019,0.152
		c0.024,0.052,0.064,0.114,0.121,0.186l-0.124,0.104l-0.924-1.107l0.124-0.104c0.062,0.069,0.114,0.12,0.161,0.152
		c0.047,0.033,0.095,0.048,0.146,0.045c0.05-0.003,0.106-0.024,0.171-0.063c0.063-0.039,0.144-0.1,0.241-0.18l1.246-1.04
		c0.087-0.073,0.155-0.136,0.207-0.191c0.051-0.055,0.084-0.106,0.1-0.154c0.017-0.048,0.015-0.097-0.004-0.146
		c-0.019-0.05-0.053-0.108-0.102-0.176l0.124-0.104l0.872,1.045L67.447,17.863z M65.513,16.708l-0.108-0.114
		c0.114-0.199,0.166-0.389,0.156-0.569c-0.011-0.18-0.078-0.335-0.203-0.465c-0.115-0.121-0.238-0.19-0.37-0.208
		c-0.13-0.018-0.242,0.018-0.336,0.106c-0.041,0.04-0.071,0.081-0.09,0.125c-0.02,0.044-0.025,0.099-0.02,0.164
		c0.007,0.065,0.025,0.144,0.057,0.237c0.031,0.093,0.077,0.207,0.137,0.344c0.078,0.187,0.137,0.354,0.175,0.5
		c0.039,0.147,0.057,0.281,0.055,0.401c-0.003,0.12-0.024,0.227-0.064,0.321s-0.101,0.181-0.183,0.259
		c-0.099,0.095-0.21,0.161-0.332,0.196c-0.123,0.036-0.25,0.042-0.382,0.022c-0.132-0.021-0.266-0.068-0.4-0.143
		c-0.135-0.074-0.263-0.175-0.386-0.304c-0.112-0.117-0.196-0.237-0.254-0.361c-0.058-0.125-0.098-0.271-0.12-0.438l-0.231,0.109
		l-0.066-0.07l0.701-0.756l0.109,0.114c-0.159,0.204-0.233,0.417-0.224,0.639s0.099,0.422,0.269,0.599
		c0.069,0.072,0.141,0.13,0.216,0.173c0.075,0.043,0.149,0.072,0.223,0.083c0.073,0.012,0.143,0.009,0.209-0.01
		c0.065-0.019,0.126-0.054,0.181-0.106c0.046-0.045,0.08-0.091,0.1-0.138c0.021-0.047,0.026-0.107,0.02-0.178
		c-0.007-0.072-0.028-0.159-0.063-0.262c-0.035-0.103-0.085-0.23-0.15-0.384c-0.131-0.311-0.19-0.577-0.179-0.796
		s0.096-0.405,0.254-0.556c0.091-0.087,0.191-0.15,0.301-0.188s0.221-0.051,0.336-0.04s0.23,0.046,0.345,0.106
		c0.115,0.06,0.224,0.143,0.326,0.25c0.095,0.099,0.169,0.207,0.222,0.325c0.053,0.117,0.089,0.249,0.108,0.394l0.196-0.087
		l0.067,0.07L65.513,16.708z M63.641,14.655l-0.131-0.114c0.062-0.096,0.104-0.183,0.126-0.262c0.022-0.079,0.025-0.156,0.008-0.229
		c-0.018-0.074-0.058-0.15-0.12-0.228s-0.148-0.164-0.256-0.257l-0.344-0.3c-0.053-0.046-0.091-0.068-0.114-0.065
		c-0.024,0.002-0.057,0.028-0.1,0.077l-0.674,0.773c0.13,0.113,0.238,0.2,0.324,0.261s0.162,0.098,0.228,0.11
		s0.129,0.003,0.189-0.03c0.062-0.033,0.133-0.086,0.216-0.161l0.112,0.098l-0.777,0.892l-0.113-0.098
		c0.06-0.092,0.1-0.171,0.121-0.237c0.022-0.066,0.022-0.132,0-0.196c-0.022-0.064-0.068-0.133-0.139-0.207
		c-0.07-0.073-0.169-0.166-0.297-0.277l-0.547,0.627c-0.056,0.065-0.096,0.127-0.117,0.187s-0.024,0.121-0.007,0.184
		c0.016,0.063,0.053,0.129,0.11,0.199c0.058,0.069,0.135,0.146,0.232,0.231c0.115,0.101,0.221,0.178,0.314,0.231
		c0.095,0.054,0.186,0.083,0.273,0.089c0.089,0.005,0.179-0.012,0.271-0.052c0.092-0.04,0.193-0.101,0.307-0.185l0.121,0.106
		l-0.656,0.655l-2.063-1.799l0.105-0.122c0.068,0.057,0.129,0.098,0.181,0.125c0.051,0.027,0.099,0.038,0.143,0.033
		s0.089-0.026,0.136-0.063s0.102-0.092,0.163-0.163l1.227-1.406c0.062-0.071,0.108-0.132,0.14-0.182
		c0.03-0.05,0.047-0.096,0.049-0.139s-0.012-0.085-0.042-0.127c-0.029-0.042-0.073-0.091-0.13-0.148l0.105-0.122l1.924,1.677
		L63.641,14.655z M60.569,11.886c-0.013-0.152-0.058-0.292-0.135-0.423c-0.078-0.13-0.188-0.245-0.328-0.345l-0.413-0.291
		c-0.037-0.026-0.069-0.021-0.096,0.017l-1.201,1.708c-0.09,0.127-0.117,0.25-0.081,0.367c0.036,0.118,0.136,0.234,0.301,0.351
		c0.289,0.203,0.572,0.272,0.85,0.208c0.277-0.064,0.533-0.263,0.768-0.596c0.124-0.176,0.214-0.348,0.27-0.516
		C60.559,12.198,60.581,12.038,60.569,11.886z M61.05,12.662c-0.04,0.212-0.127,0.413-0.26,0.602
		c-0.127,0.181-0.278,0.322-0.452,0.425c-0.175,0.103-0.361,0.165-0.56,0.187c-0.197,0.022-0.403,0.003-0.617-0.057
		c-0.213-0.06-0.422-0.162-0.626-0.305l-1.378-0.97l0.093-0.132c0.074,0.049,0.138,0.084,0.189,0.106
		c0.052,0.022,0.101,0.028,0.146,0.019c0.044-0.01,0.088-0.035,0.13-0.077c0.042-0.041,0.091-0.101,0.146-0.181l1.075-1.526
		c0.054-0.077,0.094-0.141,0.12-0.193c0.027-0.052,0.039-0.1,0.037-0.143c-0.003-0.043-0.021-0.083-0.052-0.12
		s-0.076-0.079-0.135-0.127L59,10.039l1.255,0.883c0.211,0.149,0.383,0.319,0.515,0.511c0.132,0.191,0.222,0.391,0.27,0.599
		C61.087,12.24,61.091,12.45,61.05,12.662z M56.259,8.925c-0.046-0.122-0.165-0.232-0.356-0.331l-0.255-0.131
		c-0.044-0.022-0.076-0.013-0.096,0.028l-0.475,0.923l0.212,0.109c0.107,0.055,0.206,0.093,0.295,0.113
		c0.09,0.021,0.172,0.025,0.247,0.015c0.155-0.02,0.276-0.114,0.362-0.281C56.283,9.195,56.305,9.047,56.259,8.925z M54.966,9.629
		l-0.369,0.718c-0.076,0.148-0.092,0.274-0.048,0.375c0.045,0.102,0.157,0.198,0.337,0.291c0.385,0.198,0.667,0.124,0.846-0.224
		c0.109-0.213,0.12-0.405,0.032-0.574c-0.047-0.087-0.121-0.171-0.224-0.251s-0.236-0.162-0.401-0.247L54.966,9.629z M56.798,9.626
		c-0.146,0.285-0.455,0.381-0.925,0.288l-0.008,0.014c0.132,0.068,0.241,0.147,0.329,0.239c0.088,0.092,0.151,0.19,0.191,0.296
		c0.039,0.105,0.056,0.214,0.05,0.326c-0.006,0.112-0.036,0.222-0.092,0.329c-0.063,0.123-0.146,0.214-0.252,0.275
		c-0.105,0.061-0.229,0.094-0.372,0.1c-0.274,0.01-0.599-0.081-0.972-0.272l-1.383-0.711l0.073-0.144
		c0.083,0.04,0.151,0.066,0.207,0.079s0.104,0.013,0.146-0.002c0.042-0.015,0.082-0.046,0.118-0.094s0.076-0.113,0.12-0.197
		l0.853-1.66c0.043-0.083,0.074-0.153,0.094-0.208s0.025-0.104,0.018-0.145s-0.027-0.078-0.062-0.109
		c-0.034-0.031-0.082-0.065-0.145-0.104l0.073-0.144l1.153,0.593c0.362,0.186,0.61,0.387,0.746,0.604
		C56.896,9.195,56.908,9.411,56.798,9.626z M53.803,8.179l-0.161-0.064c0.026-0.111,0.037-0.207,0.032-0.289
		c-0.005-0.082-0.028-0.154-0.069-0.219c-0.042-0.064-0.104-0.122-0.189-0.175c-0.085-0.052-0.193-0.105-0.326-0.157l-0.425-0.168
		C52.6,7.08,52.557,7.072,52.535,7.083s-0.045,0.045-0.068,0.105l-0.378,0.953c0.16,0.064,0.291,0.11,0.393,0.139
		c0.102,0.028,0.185,0.038,0.251,0.028c0.066-0.01,0.123-0.04,0.169-0.091c0.047-0.051,0.097-0.125,0.149-0.223l0.139,0.055
		l-0.436,1.1l-0.14-0.055c0.025-0.106,0.037-0.194,0.036-0.264c-0.002-0.07-0.023-0.131-0.066-0.185
		c-0.042-0.053-0.109-0.103-0.199-0.148s-0.215-0.1-0.372-0.163l-0.307,0.773c-0.032,0.08-0.049,0.151-0.049,0.215
		c0,0.063,0.018,0.122,0.054,0.175c0.037,0.054,0.094,0.104,0.171,0.15s0.176,0.094,0.296,0.141
		c0.143,0.057,0.268,0.094,0.375,0.114c0.106,0.02,0.202,0.017,0.287-0.008c0.085-0.024,0.164-0.07,0.237-0.138
		c0.073-0.068,0.148-0.161,0.228-0.277l0.149,0.06l-0.4,0.836l-2.546-1.01l0.061-0.15c0.083,0.03,0.153,0.049,0.211,0.058
		s0.105,0.003,0.146-0.016c0.039-0.02,0.075-0.054,0.106-0.105c0.032-0.051,0.065-0.12,0.1-0.208l0.688-1.734
		c0.035-0.088,0.059-0.161,0.071-0.218s0.013-0.106,0-0.148c-0.013-0.041-0.039-0.076-0.082-0.106
		c-0.041-0.03-0.099-0.062-0.172-0.097l0.06-0.15l2.372,0.941L53.803,8.179z M51.184,6.416c-0.1-0.025-0.194-0.024-0.287,0.003
		c-0.092,0.028-0.173,0.094-0.244,0.198L49.045,8.95l-0.349-0.09l-0.147-2.24l-1.307,1.865l-0.325-0.083l-0.239-2.498
		c-0.016-0.146-0.034-0.264-0.055-0.356c-0.021-0.091-0.05-0.164-0.085-0.218c-0.036-0.054-0.081-0.094-0.132-0.121
		s-0.114-0.05-0.19-0.07l0.041-0.161l1.479,0.381L47.694,5.52c-0.133-0.035-0.228-0.046-0.283-0.034
		c-0.057,0.012-0.092,0.046-0.106,0.104c-0.005,0.021-0.01,0.042-0.012,0.062c-0.003,0.021-0.003,0.044-0.002,0.071
		c0.002,0.026,0.004,0.06,0.006,0.099c0.003,0.04,0.007,0.089,0.014,0.15l0.141,1.717l1.08-1.565
		c-0.008-0.077-0.02-0.141-0.034-0.192c-0.015-0.051-0.036-0.094-0.064-0.129s-0.063-0.064-0.105-0.088
		c-0.04-0.023-0.092-0.046-0.152-0.07l0.041-0.161l1.381,0.356L49.556,6c-0.109-0.029-0.194-0.036-0.253-0.022
		c-0.06,0.014-0.099,0.06-0.119,0.138c-0.011,0.039-0.016,0.086-0.018,0.142s-0.001,0.119,0.002,0.192l0.086,1.703l0.918-1.373
		c0.107-0.159,0.173-0.281,0.194-0.367c0.021-0.081,0.007-0.141-0.043-0.18c-0.05-0.04-0.133-0.074-0.25-0.104l0.04-0.156
		l1.11,0.287L51.184,6.416z M44.585,5.589l-0.173-0.017c-0.005-0.114-0.021-0.21-0.049-0.287c-0.027-0.077-0.069-0.141-0.127-0.191
		c-0.057-0.05-0.134-0.089-0.229-0.116c-0.097-0.027-0.215-0.048-0.357-0.062l-0.454-0.045c-0.069-0.007-0.113-0.002-0.131,0.014
		c-0.019,0.016-0.03,0.056-0.037,0.12l-0.101,1.021c0.171,0.017,0.31,0.025,0.415,0.025c0.105,0,0.189-0.015,0.25-0.042
		c0.061-0.028,0.106-0.073,0.137-0.135c0.031-0.062,0.059-0.147,0.083-0.255l0.147,0.015l-0.115,1.178l-0.149-0.015
		c-0.006-0.108-0.019-0.196-0.039-0.264c-0.021-0.067-0.058-0.12-0.114-0.159c-0.055-0.04-0.133-0.069-0.232-0.088
		c-0.1-0.019-0.233-0.037-0.402-0.054l-0.082,0.828c-0.009,0.086-0.004,0.16,0.013,0.221c0.017,0.062,0.05,0.112,0.101,0.154
		c0.05,0.042,0.118,0.074,0.205,0.098s0.194,0.042,0.323,0.055c0.153,0.015,0.283,0.017,0.392,0.006
		c0.107-0.011,0.199-0.04,0.274-0.086c0.074-0.047,0.138-0.113,0.189-0.198s0.099-0.195,0.143-0.329l0.161,0.016l-0.156,0.914
		l-2.725-0.27l0.016-0.161c0.089,0.006,0.162,0.005,0.22-0.003c0.058-0.008,0.103-0.026,0.136-0.055
		c0.032-0.03,0.057-0.073,0.073-0.131s0.029-0.134,0.039-0.228l0.184-1.857c0.01-0.094,0.013-0.17,0.009-0.229
		s-0.018-0.106-0.041-0.142c-0.023-0.036-0.06-0.063-0.107-0.08c-0.049-0.017-0.112-0.032-0.192-0.045l0.016-0.161l2.54,0.252
		L44.585,5.589z M41.028,7.137c0.012,0.078,0.034,0.138,0.068,0.18c0.032,0.043,0.079,0.07,0.141,0.082
		c0.061,0.012,0.141,0.019,0.241,0.02l0.003,0.162l-1.519,0.031L39.96,7.45c0.099-0.004,0.179-0.015,0.239-0.031
		c0.061-0.017,0.107-0.045,0.14-0.086c0.033-0.041,0.054-0.099,0.063-0.173c0.009-0.074,0.013-0.174,0.01-0.301l-0.04-1.89l-0.02,0
		l-1.031,2.695l-0.299,0.006l-1.178-2.65l-0.017,0l0.039,1.861c0.003,0.135,0.01,0.241,0.022,0.319s0.036,0.138,0.069,0.18
		c0.033,0.042,0.08,0.07,0.141,0.082c0.061,0.013,0.142,0.019,0.241,0.019l0.003,0.162l-1.244,0.026l-0.004-0.162
		c0.1-0.004,0.18-0.015,0.242-0.031c0.062-0.016,0.109-0.045,0.142-0.086c0.032-0.041,0.054-0.099,0.063-0.173
		c0.009-0.074,0.012-0.174,0.01-0.301L37.52,5.295c-0.002-0.113-0.01-0.207-0.022-0.282c-0.013-0.075-0.034-0.135-0.064-0.178
		c-0.031-0.044-0.074-0.074-0.129-0.09c-0.056-0.017-0.129-0.023-0.221-0.021L37.08,4.561l1.224-0.025l0.99,2.334l0.016,0
		l0.884-2.374l1.179-0.024l0.004,0.161c-0.089,0.002-0.161,0.012-0.216,0.031c-0.055,0.019-0.097,0.051-0.125,0.098
		c-0.029,0.046-0.047,0.109-0.055,0.188c-0.008,0.08-0.011,0.18-0.008,0.301l0.032,1.567C41.008,6.953,41.016,7.059,41.028,7.137z
		 M35.931,6.325c-0.031-0.208-0.083-0.391-0.154-0.551c-0.071-0.159-0.16-0.292-0.266-0.397c-0.106-0.105-0.226-0.18-0.361-0.224
		c-0.134-0.043-0.279-0.053-0.433-0.03C34.56,5.147,34.424,5.2,34.31,5.281c-0.115,0.082-0.207,0.188-0.277,0.319
		c-0.07,0.132-0.116,0.285-0.137,0.458c-0.021,0.173-0.017,0.364,0.015,0.572c0.029,0.197,0.08,0.372,0.15,0.523
		c0.07,0.151,0.158,0.276,0.262,0.373s0.223,0.167,0.356,0.208c0.133,0.041,0.277,0.05,0.435,0.026
		c0.154-0.023,0.29-0.074,0.406-0.153s0.21-0.18,0.281-0.304s0.118-0.268,0.141-0.434C35.964,6.704,35.961,6.522,35.931,6.325z
		 M36.582,6.836c-0.061,0.203-0.157,0.385-0.29,0.548c-0.132,0.163-0.295,0.301-0.491,0.413c-0.195,0.112-0.411,0.187-0.648,0.222
		c-0.237,0.036-0.465,0.028-0.685-0.021c-0.22-0.05-0.417-0.133-0.593-0.25c-0.175-0.117-0.321-0.263-0.438-0.439
		c-0.117-0.176-0.191-0.372-0.223-0.587c-0.034-0.227-0.021-0.443,0.037-0.651c0.059-0.208,0.154-0.395,0.285-0.562
		c0.132-0.167,0.295-0.307,0.49-0.421s0.413-0.189,0.652-0.225c0.24-0.036,0.47-0.028,0.69,0.023
		c0.22,0.051,0.417,0.138,0.592,0.258c0.175,0.121,0.321,0.272,0.438,0.453c0.117,0.181,0.192,0.385,0.227,0.611
		C36.656,6.425,36.642,6.634,36.582,6.836z M32.878,7.864c-0.029,0.124-0.086,0.239-0.169,0.343
		c-0.083,0.104-0.19,0.197-0.321,0.277c-0.131,0.081-0.282,0.143-0.454,0.187c-0.157,0.04-0.303,0.054-0.439,0.042
		c-0.136-0.011-0.283-0.048-0.441-0.11l-0.018,0.255l-0.094,0.024l-0.313-0.983l0.152-0.039c0.1,0.238,0.249,0.408,0.446,0.509
		c0.198,0.101,0.416,0.121,0.653,0.061c0.097-0.024,0.182-0.059,0.257-0.103c0.075-0.044,0.135-0.095,0.182-0.152
		c0.047-0.058,0.078-0.12,0.094-0.187c0.017-0.067,0.016-0.137-0.003-0.21c-0.016-0.063-0.04-0.114-0.071-0.155
		c-0.031-0.041-0.08-0.076-0.146-0.104c-0.065-0.029-0.152-0.054-0.258-0.074c-0.106-0.02-0.243-0.04-0.409-0.059
		c-0.335-0.04-0.595-0.118-0.781-0.237c-0.186-0.118-0.305-0.283-0.359-0.494c-0.031-0.123-0.036-0.241-0.015-0.355
		c0.021-0.114,0.064-0.218,0.131-0.313c0.066-0.095,0.153-0.177,0.262-0.248s0.234-0.124,0.378-0.16
		c0.133-0.034,0.264-0.045,0.392-0.033c0.127,0.012,0.26,0.045,0.396,0.099l0.021-0.214l0.094-0.023l0.258,0.834l-0.152,0.039
		c-0.117-0.198-0.257-0.337-0.419-0.417s-0.33-0.097-0.505-0.053c-0.162,0.041-0.283,0.115-0.363,0.219
		c-0.081,0.105-0.105,0.221-0.073,0.346c0.014,0.054,0.036,0.101,0.064,0.14c0.029,0.038,0.074,0.071,0.133,0.097
		s0.138,0.049,0.234,0.067c0.096,0.019,0.219,0.036,0.367,0.051c0.201,0.024,0.375,0.055,0.522,0.094
		c0.147,0.039,0.273,0.089,0.375,0.15c0.104,0.061,0.186,0.132,0.249,0.213c0.063,0.082,0.107,0.177,0.135,0.287
		C32.906,7.611,32.908,7.74,32.878,7.864z M27.887,9.919l-0.054-0.152c0.083-0.032,0.149-0.063,0.198-0.095
		c0.049-0.031,0.082-0.067,0.1-0.107c0.017-0.041,0.021-0.09,0.011-0.15c-0.009-0.059-0.03-0.133-0.061-0.222l-0.619-1.761
		c-0.031-0.089-0.061-0.159-0.089-0.21c-0.028-0.052-0.061-0.089-0.097-0.111c-0.037-0.023-0.081-0.032-0.131-0.027
		c-0.051,0.005-0.116,0.019-0.194,0.04L26.898,6.97l2.408-0.846l0.289,0.737l-0.164,0.057c-0.053-0.101-0.108-0.181-0.166-0.239
		c-0.058-0.059-0.123-0.098-0.196-0.12c-0.073-0.021-0.159-0.024-0.258-0.008c-0.098,0.016-0.215,0.047-0.35,0.095l-0.431,0.151
		c-0.066,0.023-0.104,0.046-0.113,0.067c-0.01,0.022-0.004,0.063,0.018,0.125l0.339,0.968c0.163-0.057,0.292-0.108,0.387-0.153
		c0.096-0.045,0.165-0.093,0.208-0.144c0.043-0.051,0.066-0.111,0.067-0.18c0.001-0.069-0.01-0.158-0.034-0.267l0.141-0.049
		l0.392,1.117l-0.141,0.049c-0.051-0.096-0.1-0.17-0.147-0.223c-0.046-0.052-0.104-0.084-0.171-0.096
		C28.914,8,28.832,8.007,28.733,8.032c-0.099,0.024-0.228,0.065-0.388,0.121l0.276,0.785c0.029,0.082,0.063,0.146,0.105,0.194
		c0.041,0.049,0.093,0.081,0.156,0.097c0.063,0.017,0.139,0.017,0.228,0.001c0.089-0.015,0.194-0.044,0.316-0.087
		c0.145-0.051,0.264-0.104,0.357-0.16s0.164-0.12,0.212-0.194c0.048-0.074,0.078-0.161,0.088-0.26c0.011-0.1,0.007-0.219-0.01-0.358
		l0.152-0.054l0.246,0.895L27.887,9.919z M26.253,7.438c-0.051,0.081-0.07,0.185-0.056,0.31l0.314,2.816l-0.321,0.16l-1.579-1.596
		l0.234,2.266l-0.3,0.149l-1.817-1.73c-0.106-0.1-0.198-0.178-0.274-0.233s-0.145-0.092-0.208-0.109s-0.122-0.019-0.179-0.006
		c-0.057,0.013-0.12,0.038-0.19,0.072l-0.074-0.148l1.367-0.68l0.074,0.148c-0.123,0.061-0.201,0.114-0.236,0.16
		c-0.035,0.045-0.039,0.095-0.012,0.148c0.01,0.019,0.02,0.037,0.032,0.054c0.011,0.017,0.026,0.035,0.045,0.054
		c0.019,0.019,0.042,0.043,0.069,0.071c0.028,0.029,0.063,0.063,0.108,0.104l1.231,1.205l-0.21-1.89
		c-0.056-0.053-0.107-0.094-0.151-0.123c-0.044-0.029-0.089-0.047-0.134-0.055c-0.044-0.008-0.09-0.007-0.136,0.002
		c-0.046,0.009-0.1,0.025-0.161,0.046l-0.074-0.148l1.276-0.635L24.965,8c-0.102,0.05-0.17,0.1-0.205,0.149
		c-0.036,0.049-0.036,0.11,0,0.183c0.018,0.036,0.044,0.076,0.079,0.118c0.035,0.043,0.078,0.091,0.128,0.144l1.181,1.23
		l-0.207-1.638c-0.022-0.19-0.053-0.325-0.093-0.405c-0.037-0.075-0.087-0.11-0.15-0.108c-0.063,0.003-0.149,0.031-0.257,0.085
		l-0.072-0.145l1.027-0.511l0.072,0.145C26.376,7.293,26.305,7.356,26.253,7.438z M20.764,10.979l-0.014,0.009l0.268,1.287
		l0.805-0.526L20.764,10.979z M22.406,12.781l-0.091-0.138c0.105-0.075,0.176-0.138,0.211-0.187s0.036-0.101,0-0.155
		c-0.021-0.031-0.055-0.066-0.103-0.106c-0.048-0.039-0.109-0.086-0.184-0.141l-0.21-0.152l-0.957,0.626
		c0.05,0.308,0.105,0.508,0.166,0.601c0.044,0.068,0.098,0.094,0.16,0.079s0.145-0.056,0.246-0.122l0.088,0.135l-0.926,0.605
		l-0.088-0.135c0.05-0.042,0.09-0.082,0.123-0.119s0.057-0.076,0.074-0.116s0.026-0.084,0.027-0.131
		c0.001-0.047-0.003-0.102-0.014-0.162l-0.568-2.809l0.25-0.164l2.099,1.445c0.122,0.084,0.221,0.147,0.296,0.192
		c0.076,0.044,0.144,0.071,0.204,0.082c0.06,0.011,0.119,0.007,0.176-0.011s0.126-0.049,0.208-0.092l0.09,0.139L22.406,12.781z
		 M18.137,12.918l1.583,1.813l-0.408,0.356l-3.024-0.743l-0.012,0.011l1.143,1.308c0.088,0.102,0.162,0.178,0.22,0.231
		s0.114,0.085,0.165,0.097c0.052,0.012,0.103,0.005,0.153-0.021c0.05-0.026,0.11-0.068,0.179-0.125l0.106,0.122l-0.903,0.789
		l-0.106-0.122c0.073-0.067,0.128-0.126,0.164-0.178c0.036-0.051,0.054-0.103,0.052-0.155c-0.001-0.053-0.022-0.11-0.063-0.173
		c-0.041-0.063-0.103-0.142-0.186-0.237l-1.068-1.223c-0.074-0.085-0.14-0.152-0.197-0.201c-0.057-0.049-0.11-0.08-0.161-0.093
		c-0.05-0.013-0.103-0.008-0.155,0.016c-0.053,0.023-0.116,0.063-0.188,0.119l-0.106-0.122l0.849-0.741l2.762,0.688l0.012-0.011
		l-1.028-1.177c-0.086-0.1-0.16-0.176-0.219-0.229c-0.059-0.054-0.115-0.086-0.167-0.099s-0.103-0.005-0.153,0.021
		c-0.05,0.026-0.11,0.067-0.179,0.124l-0.106-0.122l0.904-0.789l0.106,0.122c-0.073,0.067-0.128,0.127-0.164,0.178
		c-0.036,0.051-0.054,0.103-0.052,0.155s0.023,0.111,0.064,0.175C17.994,12.746,18.056,12.825,18.137,12.918z M16.084,17.273
		c-0.023-0.141-0.079-0.282-0.166-0.425c-0.087-0.143-0.205-0.281-0.352-0.414c-0.156-0.142-0.312-0.251-0.468-0.329
		c-0.156-0.078-0.309-0.124-0.457-0.139s-0.289,0.003-0.42,0.055c-0.132,0.052-0.25,0.135-0.355,0.251
		c-0.106,0.118-0.179,0.244-0.216,0.379s-0.042,0.276-0.012,0.422s0.09,0.293,0.184,0.441c0.093,0.148,0.217,0.292,0.373,0.433
		c0.148,0.134,0.297,0.237,0.447,0.31c0.15,0.073,0.297,0.114,0.439,0.123c0.143,0.009,0.279-0.013,0.407-0.064
		c0.129-0.052,0.247-0.137,0.354-0.255c0.105-0.116,0.177-0.241,0.217-0.375C16.099,17.552,16.107,17.415,16.084,17.273z
		 M16.397,17.656c-0.08,0.211-0.201,0.405-0.361,0.583c-0.161,0.178-0.342,0.316-0.544,0.417c-0.202,0.101-0.407,0.161-0.617,0.182
		c-0.209,0.021-0.415,0-0.616-0.063c-0.201-0.063-0.383-0.167-0.544-0.313c-0.169-0.154-0.297-0.329-0.383-0.527
		c-0.086-0.198-0.131-0.403-0.135-0.615s0.034-0.424,0.113-0.636c0.08-0.211,0.2-0.407,0.363-0.587
		c0.162-0.179,0.345-0.319,0.548-0.418c0.203-0.1,0.41-0.158,0.622-0.175c0.211-0.017,0.42,0.008,0.625,0.074
		c0.205,0.066,0.393,0.176,0.563,0.33c0.162,0.146,0.283,0.317,0.364,0.512c0.081,0.195,0.122,0.398,0.123,0.608
		C16.517,17.235,16.478,17.445,16.397,17.656z M13.587,20.239c-0.04-0.138-0.111-0.271-0.214-0.403
		c-0.103-0.131-0.236-0.255-0.398-0.37c-0.171-0.122-0.339-0.212-0.503-0.271s-0.321-0.087-0.47-0.084
		c-0.149,0.003-0.287,0.038-0.411,0.104c-0.125,0.067-0.233,0.164-0.323,0.291c-0.092,0.129-0.148,0.264-0.169,0.402
		s-0.008,0.279,0.038,0.42c0.046,0.142,0.125,0.281,0.234,0.417c0.11,0.136,0.25,0.265,0.422,0.386
		c0.163,0.115,0.322,0.201,0.48,0.255c0.158,0.055,0.308,0.078,0.451,0.07c0.143-0.008,0.274-0.045,0.396-0.112
		c0.122-0.067,0.229-0.165,0.321-0.294c0.09-0.127,0.147-0.26,0.171-0.398C13.635,20.514,13.627,20.376,13.587,20.239z
		 M13.943,20.582c-0.055,0.219-0.151,0.426-0.29,0.621c-0.139,0.195-0.303,0.354-0.492,0.478c-0.188,0.124-0.385,0.208-0.591,0.253
		c-0.206,0.045-0.412,0.049-0.62,0.011c-0.207-0.039-0.399-0.121-0.577-0.247c-0.187-0.133-0.334-0.292-0.443-0.479
		c-0.109-0.186-0.178-0.384-0.207-0.595c-0.028-0.21-0.016-0.425,0.038-0.645c0.054-0.22,0.15-0.428,0.291-0.626
		c0.141-0.197,0.305-0.357,0.495-0.48c0.189-0.123,0.389-0.205,0.597-0.247c0.208-0.042,0.418-0.042,0.63,0
		c0.212,0.042,0.411,0.128,0.598,0.261c0.178,0.126,0.318,0.282,0.422,0.466c0.104,0.184,0.168,0.38,0.193,0.588
		C14.013,20.149,13.998,20.363,13.943,20.582z M10.554,22.678c-0.033-0.157-0.148-0.291-0.346-0.4
		c-0.176-0.098-0.338-0.129-0.484-0.093c-0.146,0.035-0.272,0.148-0.378,0.339l-0.151,0.272c-0.023,0.042-0.015,0.075,0.024,0.097
		l1.066,0.592l0.127-0.229C10.54,23.028,10.587,22.835,10.554,22.678z M11.185,25.15l-0.141-0.079
		c0.041-0.079,0.069-0.146,0.085-0.202c0.016-0.056,0.017-0.105,0.003-0.146c-0.014-0.042-0.044-0.082-0.091-0.12
		c-0.046-0.038-0.111-0.08-0.193-0.126l-1.63-0.907c-0.083-0.046-0.151-0.079-0.207-0.098c-0.055-0.02-0.104-0.026-0.146-0.019
		c-0.042,0.007-0.081,0.029-0.116,0.067c-0.035,0.037-0.074,0.09-0.118,0.158L8.489,23.6l0.679-1.221
		c0.199-0.358,0.413-0.593,0.642-0.706c0.229-0.113,0.469-0.1,0.718,0.039c0.254,0.142,0.393,0.348,0.416,0.62
		c0.022,0.271-0.071,0.596-0.28,0.972l-0.167,0.3l0.621,0.346c0.09,0.049,0.166,0.084,0.227,0.103
		c0.062,0.019,0.119,0.018,0.17-0.002c0.051-0.021,0.101-0.062,0.146-0.122c0.046-0.061,0.1-0.146,0.162-0.257l0.141,0.078
		L11.185,25.15z M10.709,26.075c-0.02,0.152-0.067,0.31-0.141,0.471c-0.067,0.147-0.148,0.27-0.242,0.369
		c-0.094,0.099-0.215,0.19-0.363,0.273l0.187,0.175l-0.041,0.088l-0.961-0.375l0.066-0.143c0.248,0.072,0.474,0.063,0.676-0.027
		c0.203-0.09,0.356-0.247,0.458-0.47c0.042-0.09,0.069-0.179,0.082-0.265s0.011-0.165-0.004-0.238
		c-0.016-0.072-0.044-0.136-0.085-0.19c-0.042-0.054-0.097-0.097-0.166-0.129c-0.059-0.027-0.114-0.041-0.165-0.042
		c-0.051-0.001-0.109,0.015-0.173,0.047c-0.064,0.033-0.137,0.084-0.22,0.154c-0.083,0.071-0.183,0.164-0.302,0.281
		c-0.242,0.236-0.467,0.389-0.675,0.459c-0.208,0.07-0.412,0.06-0.61-0.031c-0.115-0.053-0.21-0.123-0.285-0.211
		s-0.129-0.187-0.161-0.298c-0.032-0.111-0.041-0.231-0.028-0.36s0.05-0.26,0.112-0.395c0.057-0.125,0.131-0.233,0.22-0.325
		c0.09-0.092,0.198-0.174,0.327-0.246l-0.154-0.15l0.041-0.088l0.812,0.324l-0.066,0.143c-0.228-0.033-0.423-0.012-0.587,0.064
		c-0.164,0.076-0.283,0.196-0.358,0.359c-0.07,0.152-0.089,0.292-0.058,0.42c0.032,0.129,0.106,0.22,0.224,0.274
		c0.051,0.023,0.101,0.036,0.149,0.037c0.048,0.001,0.101-0.013,0.16-0.042c0.058-0.029,0.125-0.076,0.199-0.139
		c0.075-0.063,0.165-0.148,0.27-0.254c0.145-0.141,0.278-0.257,0.401-0.347c0.123-0.09,0.24-0.156,0.353-0.198
		c0.112-0.042,0.22-0.062,0.322-0.059c0.103,0.002,0.205,0.027,0.308,0.074c0.125,0.058,0.226,0.137,0.304,0.238
		s0.132,0.217,0.161,0.347C10.724,25.781,10.729,25.922,10.709,26.075z"/>
	<path fill="#FFFFFF" d="M49.791,26.652c-2.413,0.986-5.307,3.079-5.543,5.896c-0.342-5.083,9.684-9.51,9.292-5.376
		C53.329,25.411,50.814,26.233,49.791,26.652z M45.516,35.099c2.797,0.718,5.102-1.129,6.646-3.286
		c0.966-1.347,3.109-4.924,1.49-6.542c-1.617-1.618-5.195,0.525-6.541,1.49c-2.156,1.545-4.004,3.849-3.286,6.646
		c0.261,1.015-0.912,2.142-1.893,2.445c-0.066,0.117,0.161,0.409,0.057,0.512c-0.113,0.114-0.227,0.227-0.34,0.34
		c-1.137,1.137-2.274,2.274-3.411,3.411c-1.167,1.166-4.031,4.031-5.197,5.197c-0.168,0.168-0.327,0.418-0.566,0.462
		c-0.468,0.087-1.549,0.068-1.907,0.376c-1.176,1.01-2.353,2.02-3.529,3.029c-0.26,0.224-0.889,0.575-1.04,0.893
		c-0.245,0.513-0.018,1.476,0.353,1.847c0.104,0.104,0.207,0.224,0.311,0.342c0.119,0.104,0.237,0.206,0.342,0.311
		c0.37,0.371,1.334,0.598,1.847,0.353c0.317-0.151,0.669-0.779,0.892-1.04c1.01-1.177,2.02-2.353,3.029-3.529
		c0.307-0.357,0.289-1.438,0.376-1.906c0.044-0.24,0.294-0.398,0.462-0.567c1.166-1.165,4.031-4.03,5.197-5.196
		c1.137-1.137,2.274-2.274,3.411-3.411c0.113-0.114,0.227-0.227,0.341-0.34c0.104-0.104,0.395,0.124,0.512,0.057
		C43.374,36.011,44.501,34.838,45.516,35.099z"/>
	<path fill="#FFFFFF" d="M30.343,26.652c2.413,0.986,5.307,3.079,5.544,5.896c0.341-5.083-9.685-9.51-9.292-5.376
		C26.805,25.411,29.32,26.233,30.343,26.652z M34.619,35.099c-2.797,0.718-5.101-1.129-6.646-3.286
		c-0.965-1.347-3.108-4.924-1.49-6.542s5.195,0.525,6.542,1.49c2.156,1.545,4.003,3.849,3.285,6.646
		c-0.261,1.015,0.912,2.142,1.893,2.445c0.066,0.117-0.161,0.409-0.057,0.512c0.114,0.114,0.227,0.227,0.34,0.34
		c1.137,1.137,2.274,2.274,3.411,3.411c1.167,1.166,4.031,4.031,5.197,5.197c0.168,0.168,0.327,0.418,0.566,0.462
		c0.468,0.087,1.549,0.068,1.907,0.376c1.177,1.01,2.354,2.02,3.53,3.029c0.26,0.224,0.888,0.575,1.039,0.893
		c0.244,0.513,0.018,1.476-0.353,1.847c-0.105,0.104-0.207,0.224-0.311,0.342c-0.119,0.104-0.237,0.206-0.343,0.311
		c-0.369,0.371-1.334,0.598-1.847,0.353c-0.316-0.151-0.668-0.779-0.892-1.04c-1.01-1.177-2.02-2.353-3.029-3.529
		c-0.308-0.357-0.289-1.438-0.376-1.906c-0.044-0.24-0.294-0.398-0.462-0.567c-1.166-1.165-4.031-4.03-5.197-5.196
		c-1.137-1.137-2.274-2.274-3.412-3.411c-0.113-0.114-0.226-0.227-0.34-0.34c-0.104-0.104-0.396,0.124-0.512,0.057
		C36.761,36.011,35.634,34.838,34.619,35.099z"/>
</g>
</svg>
