<?xml version="1.0" encoding="utf-8"?>
<!-- Generator: Adobe Illustrator 13.0.0, SVG Export Plug-In . SVG Version: 6.00 Build 14948)  -->
<!DOCTYPE svg PUBLIC "-//W3C//DTD SVG 1.1//EN" "http://www.w3.org/Graphics/SVG/1.1/DTD/svg11.dtd">
<svg version="1.1" id="Calque_1" xmlns="http://www.w3.org/2000/svg" xmlns:xlink="http://www.w3.org/1999/xlink" x="0px" y="0px"
	 width="92px" height="30px" viewBox="0 0 92 30" enable-background="new 0 0 92 30" xml:space="preserve">
<g>
	<g>
		<path fill="#333333" d="M9.028,7.88C8.112,8.283,7.314,8.835,6.632,9.537c-0.682,0.702-1.221,1.517-1.618,2.446
			c-0.397,0.929-0.605,1.92-0.625,2.972c0,0.62-0.117,1.204-0.351,1.75c-0.234,0.547-0.549,1.021-0.946,1.425
			c-0.397,0.401-0.865,0.723-1.404,0.959c-0.54,0.238-1.114,0.356-1.725,0.356v3.313c1.038,0,2.019-0.201,2.945-0.604
			c0.925-0.403,1.739-0.949,2.441-1.642c0.702-0.691,1.256-1.496,1.663-2.415c0.407-0.918,0.621-1.904,0.641-2.957
			c0-0.62,0.117-1.203,0.351-1.75s0.549-1.032,0.946-1.455c0.396-0.423,0.864-0.753,1.404-0.991
			c0.539-0.237,1.114-0.356,1.724-0.356l-0.122-3.313C10.92,7.277,9.943,7.478,9.028,7.88z M26.207,9.599
			c-0.692-0.701-1.506-1.259-2.442-1.671c-0.936-0.413-1.922-0.62-2.96-0.62c-1.058,0-2.05,0.207-2.976,0.62
			c-0.926,0.413-1.729,0.97-2.411,1.671c-0.682,0.702-1.221,1.523-1.618,2.462c-0.396,0.94-0.595,1.936-0.595,2.988v11.767
			l3.112,3.188V15.049c0-0.619,0.117-1.203,0.351-1.75c0.234-0.547,0.554-1.027,0.961-1.44c0.407-0.413,0.885-0.738,1.435-0.975
			c0.549-0.237,1.129-0.356,1.739-0.356s1.19,0.119,1.739,0.356c0.55,0.237,1.027,0.563,1.435,0.975
			c0.407,0.413,0.728,0.893,0.961,1.44c0.234,0.546,0.351,1.13,0.351,1.75c0,0.64-0.117,1.238-0.351,1.795
			c-0.234,0.559-0.555,1.044-0.961,1.456c-0.407,0.413-0.885,0.738-1.435,0.976c-0.549,0.237-1.129,0.355-1.739,0.355
			c-0.407,0-0.773-0.062-1.099-0.186l-0.763,3.128c0.569,0.145,1.19,0.216,1.861,0.216c1.038,0,2.024-0.2,2.96-0.604
			c0.936-0.402,1.75-0.954,2.442-1.656c0.691-0.701,1.241-1.522,1.648-2.462c0.407-0.938,0.61-1.945,0.61-3.019
			c0-1.053-0.204-2.048-0.61-2.988C27.448,11.122,26.898,10.301,26.207,9.599z M42.475,9.568c-0.692-0.702-1.5-1.254-2.426-1.657
			c-0.926-0.402-1.908-0.604-2.945-0.604c-1.059,0-2.05,0.202-2.976,0.604s-1.729,0.955-2.411,1.657
			c-0.682,0.702-1.221,1.522-1.617,2.461c-0.397,0.939-0.595,1.946-0.595,3.019s0.198,2.08,0.595,3.019
			c0.396,0.939,0.935,1.755,1.617,2.446c0.681,0.692,1.485,1.238,2.411,1.642c0.926,0.402,1.917,0.604,2.976,0.604
			c1.037,0,2.019-0.201,2.945-0.604c0.925-0.403,1.734-0.949,2.426-1.642c0.691-0.691,1.241-1.507,1.648-2.446
			c0.407-0.938,0.61-1.945,0.61-3.019s-0.203-2.08-0.61-3.019C43.715,11.09,43.166,10.27,42.475,9.568z M41.208,16.798
			c-0.234,0.547-0.549,1.022-0.946,1.425c-0.397,0.402-0.87,0.723-1.419,0.96c-0.549,0.237-1.128,0.356-1.739,0.356
			s-1.191-0.119-1.74-0.356c-0.55-0.237-1.028-0.558-1.434-0.96c-0.408-0.402-0.728-0.878-0.962-1.425s-0.351-1.13-0.351-1.749
			s0.117-1.208,0.351-1.765c0.234-0.557,0.554-1.037,0.962-1.44c0.406-0.402,0.884-0.722,1.434-0.959
			c0.549-0.237,1.129-0.356,1.74-0.356s1.19,0.119,1.739,0.356c0.55,0.237,1.022,0.557,1.419,0.959
			c0.396,0.403,0.712,0.883,0.946,1.44c0.234,0.558,0.351,1.146,0.351,1.765S41.442,16.251,41.208,16.798z M59.135,9.568
			c-0.692-0.702-1.5-1.254-2.426-1.657s-1.907-0.604-2.945-0.604c-1.058,0-2.05,0.202-2.975,0.604
			c-0.927,0.402-1.73,0.955-2.411,1.657c-0.683,0.702-1.221,1.522-1.618,2.461c-0.396,0.939-0.595,1.946-0.595,3.019
			s0.198,2.08,0.595,3.019c0.397,0.939,0.936,1.755,1.618,2.446c0.681,0.692,1.484,1.238,2.411,1.642
			c0.925,0.402,1.917,0.604,2.975,0.604c1.038,0,2.019-0.201,2.945-0.604c0.926-0.403,1.734-0.949,2.426-1.642
			c0.691-0.691,1.241-1.507,1.648-2.446c0.407-0.938,0.61-1.945,0.61-3.019s-0.203-2.08-0.61-3.019S59.827,10.27,59.135,9.568z
			 M57.869,16.798c-0.234,0.547-0.549,1.022-0.946,1.425c-0.397,0.402-0.87,0.723-1.419,0.96s-1.13,0.356-1.74,0.356
			c-0.611,0-1.19-0.119-1.739-0.356c-0.55-0.237-1.027-0.558-1.435-0.96c-0.407-0.402-0.728-0.878-0.961-1.425
			c-0.234-0.547-0.351-1.13-0.351-1.749s0.117-1.208,0.351-1.765c0.233-0.557,0.555-1.037,0.961-1.44
			c0.407-0.402,0.885-0.722,1.435-0.959c0.549-0.237,1.128-0.356,1.739-0.356c0.61,0,1.19,0.119,1.74,0.356s1.022,0.557,1.419,0.959
			c0.396,0.403,0.711,0.883,0.946,1.44c0.234,0.558,0.351,1.146,0.351,1.765S58.103,16.251,57.869,16.798z M76.102,9.599
			c-0.692-0.701-1.506-1.259-2.441-1.671c-0.937-0.413-1.934-0.62-2.991-0.62s-2.056,0.207-2.991,0.62
			c-0.936,0.413-1.75,0.97-2.441,1.671c-0.691,0.702-1.235,1.523-1.632,2.462c-0.397,0.94-0.585,1.936-0.565,2.988v7.74h3.174v-7.74
			c0-0.619,0.117-1.208,0.352-1.765c0.233-0.557,0.555-1.037,0.961-1.44c0.407-0.402,0.88-0.722,1.42-0.959
			c0.539-0.237,1.113-0.356,1.724-0.356s1.185,0.119,1.725,0.356c0.538,0.237,1.012,0.557,1.419,0.959
			c0.406,0.403,0.727,0.883,0.961,1.44c0.234,0.558,0.352,1.146,0.352,1.765v7.74h3.174v-7.74c0.02-1.053-0.168-2.048-0.564-2.988
			C77.338,11.122,76.793,10.301,76.102,9.599z M91.498,7.277c-1.036,0-2.013,0.201-2.93,0.604c-0.915,0.402-1.714,0.955-2.395,1.657
			c-0.683,0.702-1.221,1.517-1.618,2.446c-0.396,0.929-0.605,1.92-0.626,2.972c0,0.62-0.117,1.204-0.351,1.75
			c-0.233,0.547-0.549,1.021-0.946,1.425c-0.396,0.401-0.864,0.723-1.403,0.959c-0.539,0.238-1.114,0.356-1.725,0.356v3.313
			c1.038,0,2.02-0.201,2.945-0.604c0.926-0.403,1.74-0.949,2.441-1.642c0.702-0.691,1.256-1.496,1.664-2.415
			c0.405-0.918,0.62-1.904,0.64-2.957c0-0.62,0.117-1.203,0.352-1.75c0.233-0.547,0.549-1.032,0.945-1.455
			c0.397-0.423,0.865-0.753,1.405-0.991c0.538-0.237,1.112-0.356,1.724-0.356L91.498,7.277z"/>
	</g>
</g>
</svg>
